<svg xmlns="http://www.w3.org/2000/svg" width="3000" height="3001" fill="none" viewBox="0 0 3000 3001" id="businesswoman-working-on-laptop"><g clip-path="url(#clip0_101_35674)"><path fill="#E5E5E5" d="M493.265 2483.69V2370.95H801.423V2483.69H493.265Z"></path><path fill="#53B3CC" fill-rule="evenodd" d="M670.714 2479.93C667.854 2452.24 666.347 2417.89 669.893 2385.98C675.905 2331.86 785.139 2350.91 839.004 2367.19H1353.85C1355.11 2382.22 1359.11 2419.05 1365.13 2446.11C1367.65 2457.48 1366.78 2469.28 1363.94 2479.93H670.714Z" clip-rule="evenodd"></path><path fill="#F1F1F1" d="M2639.09 1702.02C2603.02 1735.09 2594 1828.54 2594 1871.13L2571.45 2066.55H2639.09C2661.64 2047.76 2708.99 1989.13 2718.01 1904.95C2729.29 1799.73 2766.87 1822.28 2800.69 1709.54C2834.51 1596.8 2774.38 1604.31 2751.84 1638.13C2729.29 1671.96 2684.19 1660.68 2639.09 1702.02Z"></path><path fill="#E5E5E5" d="M2368.52 1679.47C2376.03 1728.33 2413.61 1762.15 2424.89 1765.91C2454.95 1797.22 2518.09 1861.36 2530.11 1867.37C2542.14 1873.39 2517.59 2010.18 2503.81 2077.82H2417.37C2412.36 2066.55 2394.07 2034.98 2361 1998.9C2319.66 1953.81 2349.73 1897.44 2319.66 1837.31C2289.6 1777.18 2293.36 1713.29 2312.15 1671.96C2330.94 1630.62 2361 1630.62 2368.52 1679.47Z"></path><path fill="#F15846" d="M2439.92 1938.78C2482.01 1989.88 2472.49 2040.24 2462.47 2059.03C2498.79 2102.88 2580.47 2164.26 2616.55 2059.03C2661.64 1927.5 2639.09 1852.34 2571.45 1765.91C2503.81 1679.47 2560.18 1604.31 2556.42 1532.91C2552.66 1461.51 2488.77 1446.47 2447.44 1506.6C2406.1 1566.73 2451.19 1600.55 2409.86 1724.57C2368.52 1848.58 2387.31 1874.89 2439.92 1938.78Z"></path><path fill="#D05244" fill-rule="evenodd" d="M2470.62 1686.03C2473.54 1647.85 2479.99 1610.47 2485.06 1587.62L2500 1590.94C2495.06 1613.19 2488.73 1649.84 2485.88 1687.19C2483.01 1724.88 2483.79 1761.99 2492.23 1785.91C2496.52 1798.07 2501.77 1810.18 2507.41 1823.21C2509.03 1826.96 2510.69 1830.79 2512.37 1834.71C2519.81 1852.14 2527.47 1871.15 2533.71 1892.99C2546.23 1936.81 2552.87 1991.46 2541.44 2067.68L2526.3 2065.41C2537.42 1991.31 2530.91 1938.86 2519 1897.19C2513.02 1876.28 2505.65 1857.95 2498.3 1840.73C2496.7 1836.98 2495.09 1833.27 2493.5 1829.59C2487.82 1816.47 2482.29 1803.71 2477.8 1791C2468.21 1763.81 2467.74 1723.88 2470.62 1686.03Z" clip-rule="evenodd"></path><path fill="#FAC22F" d="M433.136 732.45H606.006V1236.03H433.136V732.45zM756.326 634.742H929.195V1236.03H756.326V634.742z"></path><path fill="#F1F1F1" d="M1079.52 491.937H1252.39V1236.03H1079.52V491.937Z"></path><path fill="#3E3D3D" d="M699.957 1277.36C693.944 1157.11 777.622 1129.55 820.213 1130.8C817.708 1101.99 835.997 1036.85 929.196 1006.79C1022.4 976.721 1085.78 1024.32 1105.82 1051.88C1180.98 1070.67 1203.53 1100.74 1229.84 1149.59C1256.14 1198.44 1226.08 1243.54 1271.18 1299.91C1316.27 1356.28 1316.27 1412.65 1305 1438.96C1293.72 1465.26 1263.66 1525.39 1297.48 1566.73C1324.54 1599.8 1321.28 1655.67 1316.27 1679.47L1049.45 1908.71C947.986 1879.9 727.015 1793.72 654.861 1679.47C582.707 1565.23 612.27 1466.52 636.071 1431.44C621.039 1344.26 672.398 1292.4 699.957 1277.36Z"></path><path fill="#EFCB96" fill-rule="evenodd" d="M1102.06 1559.88C1126.77 1538.72 1169.71 1486.75 1169.71 1423.93C1169.71 1357.79 1152.17 1298.66 1143.4 1277.36C1094.55 1294.9 981.808 1312.69 921.679 1243.54C929.195 1281.12 925.437 1365.3 850.277 1401.38C828.981 1390.1 785.639 1383.34 782.633 1446.47C779.626 1509.61 823.97 1522.89 846.518 1521.64V1773.42H1102.06V1559.88Z" clip-rule="evenodd"></path><path fill="#F15846" fill-rule="evenodd" d="M278.484 1944.92C319.727 2024.86 407.977 2074.23 502.258 2061.67C622.252 2045.7 706.574 1935.47 690.597 1815.48C674.62 1695.48 564.394 1611.16 444.401 1627.14C417.088 1630.77 391.623 1639.29 368.768 1651.7L467.677 1842.46L278.484 1944.92Z" clip-rule="evenodd"></path><path fill="#F1F1F1" fill-rule="evenodd" d="M341.369 1670.85L427.245 1826.83L269.194 1918.71C264.002 1904.27 260.256 1889.07 258.149 1873.24C247.462 1792.98 281.649 1717.09 341.369 1670.85Z" clip-rule="evenodd"></path><path fill="#3E3D3D" fill-rule="evenodd" d="M-2.92969 2483.69C-2.92969 2479.46 0.495682 2476.04 4.72109 2476.04H2992.35C2996.57 2476.04 3000 2479.46 3000 2483.69C3000 2487.91 2996.57 2491.34 2992.35 2491.34H4.72109C0.495682 2491.34 -2.92969 2487.91 -2.92969 2483.69Z" clip-rule="evenodd"></path><path fill="#3E3D3D" d="M2369.57 2074.74C2367.06 2060.67 2377.88 2047.76 2392.16 2047.76H2675.23C2689.63 2047.76 2700.48 2060.87 2697.78 2075.01L2654.2 2303.3H2410.29L2369.57 2074.74Z"></path><path fill="#E5E5E5" d="M2169.34 1063.16H2409.86V1378.83H2169.34V1063.16Z"></path><path fill="#3E3D3D" fill-rule="evenodd" d="M1522.83 1055.51H2064.25V1378.96H1522.83V1055.51ZM1538.13 1070.81V1363.66H2048.95V1070.81H1538.13Z" clip-rule="evenodd"></path><path fill="#fff" d="M2176.86 1063.16H2409.86C2398.92 1197.39 2418.74 1264.01 2488.78 1371.31H2255.78C2179.1 1260.75 2165.77 1192.44 2176.86 1063.16Z"></path><path fill="#FAC22F" fill-rule="evenodd" d="M2169.84 1055.51H2418.16L2417.48 1063.78C2412.05 1130.43 2414.31 1179.69 2426.35 1225.38C2438.39 1271.09 2460.36 1313.78 2495.18 1367.13L2502.91 1378.96H2251.77L2249.49 1375.67C2210.85 1319.96 2187.81 1274.37 2175.97 1226.08C2164.15 1177.83 2163.66 1127.47 2169.24 1062.5L2169.84 1055.51ZM2183.9 1070.81C2179.02 1131.67 2180.01 1178.24 2190.84 1222.44C2201.84 1267.34 2223.15 1310.34 2259.79 1363.66H2474.75C2443.81 1314.97 2423.26 1273.72 2411.55 1229.28C2399.42 1183.26 2396.92 1134.32 2401.59 1070.81H2183.9Z" clip-rule="evenodd"></path><path fill="#FAC22F" fill-rule="evenodd" d="M2349.73 1164.76H2229.47V1149.46H2349.73V1164.76ZM2368.52 1243.68H2248.26V1228.37H2368.52V1243.68ZM2402.34 1311.32H2282.08V1296.02H2402.34V1311.32Z" clip-rule="evenodd"></path><path fill="#E5E5E5" fill-rule="evenodd" d="M2173.1 623.602H1530.48V608.301H2173.1V623.602ZM2173.1 770.165H1530.48V754.864H2173.1V770.165ZM2049.08 924.244H1530.48V908.943H2049.08V924.244Z" clip-rule="evenodd"></path><path fill="#53B3CC" d="M996.839 2303.3L1023.15 2183.05L1135.89 2310.82L1575.57 2303.3L1459.08 1788.45C1456.57 1774.68 1433.52 1732.08 1361.37 1671.96C1289.21 1611.83 1173.47 1606.82 1124.61 1611.83C1118.35 1651.91 1079.52 1732.08 974.291 1732.08C869.066 1732.08 830.233 1651.91 823.97 1611.83L692.439 1634.38C584.208 1655.42 532.097 1748.37 519.57 1792.21L411.495 2134.03C384.988 2217.87 447.579 2303.3 535.507 2303.3H996.839Z"></path><path fill="#EFCB96" d="M1165.95 2243.18C1147.91 2228.14 1063.23 2199.33 1023.15 2186.8L1000.6 2295.79L1038.18 2307.06H1218.56C1208.54 2292.03 1183.99 2258.21 1165.95 2243.18Z"></path><path fill="#46A4BC" fill-rule="evenodd" d="M974.291 1781.07C852.757 1781.07 796.037 1695.22 782.825 1651.63L797.469 1647.19C809.312 1686.27 861.323 1765.77 974.291 1765.77C1087.49 1765.77 1136.81 1691.02 1147.33 1654.79L1162.02 1659.06C1149.99 1700.5 1095.59 1781.07 974.291 1781.07ZM1372.67 2165.83L1323.81 1932.83L1338.79 1929.69L1387.64 2162.69L1372.67 2165.83ZM675.88 2068.54L703.765 1944.61L718.693 1947.97L690.808 2071.9C688.435 2082.45 694.978 2092.95 705.492 2095.46L1024.92 2171.85L1021.37 2186.73L701.934 2110.34C686.119 2106.56 673.822 2095.92 665.049 2084.98C656.243 2074 650.392 2061.98 647.631 2054.03L662.086 2049.01C664.151 2054.95 668.573 2064.24 675.166 2073.06C675.304 2071.56 675.541 2070.05 675.88 2068.54ZM1356.15 2261.96C1246.57 2240.65 1175.5 2192.15 1153.02 2169.67L1163.84 2158.85C1183.96 2178.96 1252.18 2226.16 1359.07 2246.94L1356.15 2261.96Z" clip-rule="evenodd"></path><path fill="#3E3D3D" d="M1550.21 1717.05H1786.02H2002.34C2034.84 1717.05 2063.8 1737.59 2074.54 1768.27L2227.63 2205.26C2245.06 2255.01 2208.14 2307.06 2155.42 2307.06H1422.17C1371.13 2307.06 1334.4 2258.03 1348.75 2209.04L1476.78 1772.05C1486.34 1739.45 1516.24 1717.05 1550.21 1717.05Z"></path><path fill="#53B3CC" fill-rule="evenodd" d="M1793.88 1555.46C1745.61 1555.46 1703.18 1587.43 1689.87 1633.83L1665.77 1717.84L1711.02 1717.84L1730.11 1628.3C1736.52 1598.24 1763.08 1576.75 1793.81 1576.75C1824.69 1576.75 1851.33 1598.44 1857.59 1628.67L1876.06 1717.84L1921.31 1717.84L1898.12 1634.62C1885.08 1587.83 1842.46 1555.46 1793.88 1555.46Z" clip-rule="evenodd"></path><path fill="#3E3D3D" fill-rule="evenodd" d="M1985.2 1176.03H1616.91V1160.73H1985.2V1176.03zM1782.27 1277.5H1616.91V1262.2H1782.27V1277.5zM140.011 2303.3H2905.92V2385.98H2768.75L2791.3 2476.17H2708.62L2686.07 2385.98H386.161L363.612 2476.17H280.936L303.484 2385.98H140.011V2303.3z" clip-rule="evenodd"></path></g><defs><clipPath id="clip0_101_35674"><rect width="3000" height="3000" fill="#fff" transform="translate(0 .427)"></rect></clipPath></defs></svg>